<svg xmlns="http://www.w3.org/2000/svg" width="280" height="280" viewBox="0 0 280 280">
  <!-- Order placement illustration -->
  <rect x="70" y="40" width="140" height="200" rx="10" fill="#F0F7FF"/>
  <rect x="90" y="60" width="100" height="140" rx="5" fill="#FFFFFF" stroke="#1E88E5" stroke-width="2"/>
  
  <!-- Checklist -->
  <rect x="100" y="80" width="80" height="15" rx="2" fill="#F5F5F5"/>
  <rect x="100" y="105" width="80" height="15" rx="2" fill="#F5F5F5"/>
  <rect x="100" y="130" width="80" height="15" rx="2" fill="#F5F5F5"/>
  
  <!-- Check marks -->
  <circle cx="110" y="87" r="5" fill="#1E88E5"/>
  <path d="M107,87 L109,89 L113,85" stroke="white" stroke-width="1" fill="none"/>
  
  <!-- Person with magnifying glass -->
  <circle cx="180" y="120" r="20" fill="#1E88E5" opacity="0.2"/>
  <circle cx="180" y="110" r="8" fill="#1E88E5"/>
  <rect x="175" y="118" width="10" height="15" rx="5" fill="#1E88E5"/>
  <circle cx="165" y="140" r="10" fill="#1E88E5" opacity="0.5"/>
  <circle cx="165" y="140" r="7" fill="#FFFFFF"/>
  <rect x="163" y="140" width="4" height="15" rx="2" fill="#1E88E5" transform="rotate(-45, 165, 140)"/>
</svg>